<svg width="24" height="24" viewBox="0 0 24 24" fill="none" xmlns="http://www.w3.org/2000/svg">
<path fill-rule="evenodd" clip-rule="evenodd" d="M12.5 3C9.98044 3 7.56408 4.00089 5.78249 5.78249C4.00089 7.56408 3 9.98044 3 12.5C3 15.0196 4.00089 17.4359 5.78249 19.2175C7.56408 20.9991 9.98044 22 12.5 22C13.7476 22 14.9829 21.7543 16.1355 21.2769C17.2881 20.7994 18.3354 20.0997 19.2175 19.2175C20.0997 18.3354 20.7994 17.2881 21.2769 16.1355C21.7543 14.9829 22 13.7476 22 12.5C22 11.2524 21.7543 10.0171 21.2769 8.86451C20.7994 7.71191 20.0997 6.66464 19.2175 5.78249C18.3354 4.90033 17.2881 4.20056 16.1355 3.72314C14.9829 3.24572 13.7476 3 12.5 3ZM16.972 16.05C17.205 16.28 17.209 16.654 16.981 16.89C16.8707 17.0022 16.7204 17.0663 16.5631 17.0682C16.4057 17.07 16.254 17.0096 16.141 16.9L12.5 13.33L8.86 16.896C8.8043 16.9508 8.73831 16.9941 8.66582 17.0234C8.59334 17.0526 8.51579 17.0672 8.43763 17.0664C8.35947 17.0656 8.28225 17.0493 8.21041 17.0185C8.13856 16.9877 8.07351 16.943 8.019 16.887C7.96438 16.8313 7.9213 16.7653 7.89223 16.6928C7.86317 16.6204 7.84868 16.543 7.84961 16.4649C7.85054 16.3869 7.86686 16.3098 7.89765 16.2381C7.92843 16.1664 7.97307 16.1014 8.029 16.047L11.652 12.499L8.028 8.949C7.9159 8.83854 7.85204 8.68822 7.85035 8.53086C7.84867 8.37349 7.90929 8.22184 8.019 8.109C8.12933 7.99676 8.27957 7.93272 8.43694 7.93085C8.59431 7.92898 8.74603 7.98942 8.859 8.099L12.5 11.67L16.14 8.104C16.1957 8.04916 16.2617 8.00588 16.3342 7.97664C16.4067 7.9474 16.4842 7.93277 16.5624 7.93361C16.6405 7.93445 16.7178 7.95073 16.7896 7.98151C16.8614 8.0123 16.9265 8.05698 16.981 8.113C17.211 8.347 17.207 8.723 16.971 8.953L13.349 12.5L16.972 16.05Z" fill="url(#paint0_linear_74141_5)"/>
<defs>
<linearGradient id="paint0_linear_74141_5" x1="5.30473" y1="3.00001" x2="22.1779" y2="4.4109" gradientUnits="userSpaceOnUse">
<stop stop-color="#DF5950"/>
<stop offset="1" stop-color="#451046"/>
</linearGradient>
</defs>
</svg>
